# xmcd
# Track frame offsets:
# 150
# 16654
# 30804
# 47949
# 63691
# 77261
# 97465
# 115831
# 130878
# 148664
# 164651
# 182348
#
# Disc length: 2687 seconds
# Revision: 0
# Processed by: cddbd v1.4PL0 Copyright (c) Steve Scherf et al.
# Submitted via: VisiTrax 2.9.5.180 - For more info visit www.synapsa.com
#
DISCID=9b0a7d0c
DTITLE=Woodpickers - Reason and Dream
DYEAR=1900
DGENRE=
TTITLE0=Holding back the rust
TTITLE1=Journey's end
TTITLE2=Prey to rain
TTITLE3=One more mile
TTITLE4=Lines of love
TTITLE5=Slow coach
TTITLE6=Throw a little light
TTITLE7=Outlaw way
TTITLE8=Motherlode
TTITLE9=Reason and dream
TTITLE10=Pretty red ribbon
TTITLE11=If there's a war on
EXTD=
EXTT0=
EXTT1=
EXTT2=
EXTT3=
EXTT4=
EXTT5=
EXTT6=
EXTT7=
EXTT8=
EXTT9=
EXTT10=
EXTT11=
PLAYORDER=
